<svg width="128" height="128" viewBox="0 0 128 128" fill="none" xmlns="http://www.w3.org/2000/svg">
<mask id="path-1-inside-1_2_419" fill="white">
<path d="M64 18C97.1371 18 124 25.0589 124 35C124 35.2612 123.98 35.5208 123.943 35.7793L123.976 35.5L128 91.2178L127.529 91.376C125.024 92.241 120.329 94.1829 118.356 96.1943L117.872 96.6836C115.493 99.0701 113.643 100.525 108.712 101.872L108.219 101.994C103.123 103.133 98.0274 100.48 92.9316 101.872L92.4434 102.017C87.4521 103.608 84.0544 108.169 80.6572 109.098C77.2043 110.041 53.3632 110.508 47.6465 109.163L47.3887 109.098C42.1745 107.673 37.2284 101.052 30.6846 99.2637C24.3452 97.5317 17.1242 99.922 13.96 99.3301L13.667 99.2637C10.676 98.4464 9.64381 96.8952 7.01367 95.3467L0 91.2178L4.08984 34.0078C5.80656 24.5282 31.9727 18 64 18ZM118.679 86.7441C117.376 88.0715 116.253 89.1581 114.788 90.0879C113.308 91.0272 111.504 91.7926 108.844 92.5195C106.099 93.2693 103.367 92.8902 100.754 92.5332C98.1072 92.1716 95.5792 91.8322 93.0635 92.5195C90.5365 93.21 88.4124 94.7209 86.4404 96.2275C85.4651 96.9727 84.5148 97.7258 83.5947 98.3467C82.6731 98.9686 81.7432 99.4854 80.7891 99.7461C80.3059 99.8781 79.5006 99.9931 78.4844 100.095C77.4572 100.197 76.1823 100.289 74.7402 100.367C71.8551 100.524 68.2866 100.628 64.667 100.657C61.0477 100.686 57.3715 100.641 54.2705 100.499C51.1886 100.358 48.6221 100.119 47.2568 99.7461C44.5337 99.002 41.9043 96.9118 39.2324 94.8809C36.5177 92.8174 33.7177 90.7769 30.5527 89.9121C27.3777 89.0446 23.9516 89.2376 20.8965 89.5625C19.3887 89.7228 17.9383 89.9197 16.709 90.0215C15.4843 90.1229 14.3763 90.1418 13.5352 89.9121C11.9658 89.4833 10.9064 88.8578 9.91504 88.1523C8.91498 87.4407 8.05123 86.7037 6.75977 85.9434L6.75098 85.9385L6.74316 85.9326L1.53027 82.5752L1.03516 90.666L7.52148 94.4854C8.88331 95.2872 9.90277 96.1375 10.7842 96.7646C11.6831 97.4042 12.5823 97.9306 13.9297 98.2988C14.4906 98.4521 15.3614 98.4617 16.585 98.3604C17.7992 98.2598 19.1593 98.0731 20.7373 97.9053C23.8148 97.578 27.483 97.3521 30.9482 98.2988C34.4339 99.2513 37.4518 101.477 40.1406 103.521C42.9152 105.63 45.2774 107.485 47.6523 108.134C48.8325 108.456 51.2351 108.693 54.3389 108.835C57.4049 108.976 61.0533 109.02 64.6553 108.991C68.2567 108.962 71.8015 108.859 74.6592 108.704C76.0884 108.626 77.3394 108.536 78.3359 108.437C79.3536 108.335 80.0447 108.229 80.3936 108.134C81.1155 107.937 81.8868 107.524 82.7559 106.938C83.6278 106.349 84.5222 105.64 85.5303 104.87C87.5041 103.362 89.8316 101.682 92.668 100.907C95.5265 100.126 98.3604 100.526 100.957 100.881C103.621 101.245 106.048 101.563 108.449 100.907C111.018 100.205 112.67 99.4898 113.984 98.6553C115.304 97.8175 116.332 96.8309 117.643 95.4941C118.827 94.2859 120.794 93.1703 122.662 92.2842C124.21 91.5499 125.775 90.9345 126.953 90.5186L126.382 81.4941L118.679 86.7441Z"/>
</mask>
<path d="M1.60059 81.4316L-0.894731 81.2787L-0.984334 82.7405L0.247013 83.5335L1.60059 81.4316ZM7.28418 85.0918L5.93061 87.1937L5.97154 87.22L6.01347 87.2448L7.28418 85.0918ZM10.4951 87.3379L9.04571 89.3749L9.04575 89.3749L10.4951 87.3379ZM13.7988 88.9473L13.1399 91.3589L13.1403 91.359L13.7988 88.9473ZM16.626 89.0244L16.8323 91.5159L16.8323 91.5159L16.626 89.0244ZM20.791 88.5684L20.5267 86.0824H20.5267L20.791 88.5684ZM30.8164 88.9473L31.4754 86.5357L31.4753 86.5357L30.8164 88.9473ZM39.8379 94.085L38.325 96.0753L38.325 96.0753L39.8379 94.085ZM47.5205 98.7812L46.8616 101.193L46.8616 101.193L47.5205 98.7812ZM54.3164 99.5L54.4309 97.0026V97.0026L54.3164 99.5ZM64.6592 99.6572L64.639 97.1573V97.1573L64.6592 99.6572ZM74.6855 99.3691L74.55 96.8728H74.5499L74.6855 99.3691ZM78.3857 99.0996L78.6344 101.587L78.6345 101.587L78.3857 99.0996ZM80.5254 98.7812L81.1841 101.193L81.1843 101.193L80.5254 98.7812ZM83.0352 97.5176L81.6368 95.4453L81.6368 95.4453L83.0352 97.5176ZM85.833 95.4326L84.3152 93.4461L84.3152 93.4461L85.833 95.4326ZM92.7998 91.5547L92.1409 89.1431L92.1409 89.1431L92.7998 91.5547ZM100.89 91.542L101.228 89.065H101.228L100.89 91.542ZM108.58 91.5547L109.239 93.9663L109.239 93.9663L108.58 91.5547ZM114.253 89.2432L115.593 91.3537L115.593 91.3537L114.253 89.2432ZM117.999 86.0098L116.231 84.242L116.223 84.2506L116.214 84.2594L117.999 86.0098ZM118.034 85.9746L116.591 83.9336L116.417 84.0564L116.266 84.2068L118.034 85.9746ZM118.074 85.9463L116.666 83.8804L116.648 83.8927L116.631 83.9053L118.074 85.9463ZM126.309 80.335L127.716 82.4009L128.809 81.6566V80.335H126.309ZM126.309 80.3242H128.809V80.2437L128.803 80.1634L126.309 80.3242ZM5 35.0215L2.57313 34.4212L2.49852 34.7229L2.50003 35.0336L5 35.0215ZM9.29395 41.1904L7.84762 43.2296L7.84762 43.2296L9.29395 41.1904ZM21.8613 46.7705L21.143 49.1651L21.143 49.1651L21.8613 46.7705ZM106.139 46.7705L106.857 49.1651L106.857 49.1651L106.139 46.7705ZM118.706 41.1904L120.152 43.2296L120.152 43.2296L118.706 41.1904ZM122.652 36.7607L124.98 37.6732L125.073 37.4345L125.117 37.1817L122.652 36.7607ZM21.8613 23.2295L21.143 20.8349L21.143 20.8349L21.8613 23.2295ZM9.29395 28.8096L7.84762 26.7704L7.84762 26.7704L9.29395 28.8096ZM5.5 33L3.21081 31.9952L3.12462 32.1916L3.07313 32.3997L5.5 33ZM122.993 34.7656L125.457 35.1866L125.504 34.912L125.49 34.6338L122.993 34.7656ZM118.706 28.8096L120.152 26.7704L120.152 26.7704L118.706 28.8096ZM106.139 23.2295L106.857 20.8349L106.857 20.8349L106.139 23.2295ZM1.60059 81.4316L0.247013 83.5335L5.93061 87.1937L7.28418 85.0918L8.63775 82.9899L2.95416 79.3298L1.60059 81.4316ZM7.28418 85.0918L6.01347 87.2448C7.22722 87.9611 7.93497 88.5845 9.04571 89.3749L10.4951 87.3379L11.9445 85.3009C11.2205 84.7858 10.0017 83.7927 8.55489 82.9388L7.28418 85.0918ZM10.4951 87.3379L9.04575 89.3749C10.1293 90.1459 11.3489 90.8695 13.1399 91.3589L13.7988 88.9473L14.4578 86.5357C13.4059 86.2483 12.7203 85.8529 11.9445 85.3009L10.4951 87.3379ZM13.7988 88.9473L13.1403 91.359C14.2622 91.6653 15.6081 91.6172 16.8323 91.5159L16.626 89.0244L16.4197 86.5329C15.1964 86.6342 14.6441 86.5865 14.4574 86.5356L13.7988 88.9473ZM16.626 89.0244L16.8323 91.5159C18.0768 91.4128 19.6177 91.2072 21.0553 91.0543L20.791 88.5684L20.5267 86.0824C18.8547 86.2602 17.614 86.4341 16.4197 86.5329L16.626 89.0244ZM20.791 88.5684L21.0553 91.0543C24.0878 90.7319 27.2725 90.5706 30.1575 91.3589L30.8164 88.9473L31.4753 86.5357C27.6235 85.4833 23.6342 85.752 20.5267 86.0824L20.791 88.5684ZM30.8164 88.9473L30.1575 91.3589C33.0021 92.1361 35.585 93.9925 38.325 96.0753L39.8379 94.085L41.3507 92.0947C38.6957 90.0766 35.3884 87.6049 31.4754 86.5357L30.8164 88.9473ZM39.8379 94.085L38.325 96.0753C40.8925 98.0268 43.7897 100.354 46.8616 101.193L47.5205 98.7812L48.1794 96.3697C46.2693 95.8477 44.264 94.3091 41.3507 92.0947L39.8379 94.085ZM47.5205 98.7812L46.8616 101.193C48.4121 101.617 51.1425 101.857 54.2019 101.997L54.3164 99.5L54.4309 97.0026C51.2969 96.8589 49.1126 96.6246 48.1794 96.3696L47.5205 98.7812ZM54.3164 99.5L54.2019 101.997C57.338 102.141 61.0427 102.186 64.6794 102.157L64.6592 99.6572L64.639 97.1573C61.0603 97.1862 57.4503 97.1411 54.4309 97.0026L54.3164 99.5ZM64.6592 99.6572L64.6794 102.157C68.3169 102.128 71.9085 102.024 74.8211 101.865L74.6855 99.3691L74.5499 96.8728C71.7291 97.026 68.2161 97.1284 64.639 97.1573L64.6592 99.6572ZM74.6855 99.3691L74.8211 101.865C76.2766 101.786 77.5768 101.693 78.6344 101.587L78.3857 99.0996L78.1371 96.612C77.181 96.7076 75.9619 96.7961 74.55 96.8728L74.6855 99.3691ZM78.3857 99.0996L78.6345 101.587C79.6484 101.486 80.5666 101.362 81.1841 101.193L80.5254 98.7812L79.8667 96.3696C79.6971 96.4159 79.1574 96.51 78.137 96.612L78.3857 99.0996ZM80.5254 98.7812L81.1843 101.193C82.3711 100.869 83.4601 100.247 84.4336 99.5899L83.0352 97.5176L81.6368 95.4453C80.837 95.9849 80.2783 96.2571 79.8665 96.3697L80.5254 98.7812ZM83.0352 97.5176L84.4335 99.5899C85.4019 98.9365 86.4088 98.1389 87.3508 97.4192L85.833 95.4326L84.3152 93.4461C83.2629 94.2501 82.4444 94.9003 81.6368 95.4453L83.0352 97.5176ZM85.833 95.4326L87.3508 97.4192C89.3204 95.9143 91.2409 94.5723 93.4588 93.9663L92.7998 91.5547L92.1409 89.1431C88.8922 90.0308 86.2921 91.9357 84.3152 93.4461L85.833 95.4326ZM92.7998 91.5547L93.4587 93.9663C95.6321 93.3725 97.8553 93.6507 100.551 94.019L100.89 91.542L101.228 89.065C98.6973 88.7193 95.4561 88.2373 92.1409 89.1431L92.7998 91.5547ZM100.89 91.542L100.551 94.019C103.113 94.369 106.152 94.8098 109.239 93.9663L108.58 91.5547L107.921 89.1431C105.977 89.6742 103.959 89.4382 101.228 89.065L100.89 91.542ZM108.58 91.5547L109.239 93.9663C111.991 93.2142 113.948 92.3984 115.593 91.3537L114.253 89.2432L112.913 87.1326C111.819 87.8271 110.368 88.4746 107.921 89.1431L108.58 91.5547ZM114.253 89.2432L115.593 91.3537C117.228 90.3157 118.461 89.1091 119.784 87.7602L117.999 86.0098L116.214 84.2594C114.911 85.5879 114.022 86.4285 112.913 87.1327L114.253 89.2432ZM117.999 86.0098L119.767 87.7775L119.802 87.7424L118.034 85.9746L116.266 84.2068L116.231 84.242L117.999 86.0098ZM118.034 85.9746L119.478 88.0156L119.518 87.9873L118.074 85.9463L116.631 83.9053L116.591 83.9336L118.034 85.9746ZM118.074 85.9463L119.482 88.0122L127.716 82.4009L126.309 80.335L124.901 78.269L116.666 83.8804L118.074 85.9463ZM126.309 80.335H128.809V80.3242H126.309H123.809V80.335H126.309ZM126.309 80.3242L128.803 80.1634L125.995 36.5999L123.5 36.7607L121.005 36.9216L123.814 80.4851L126.309 80.3242ZM4.20703 38.9082L1.71171 38.7553L-0.894731 81.2787L1.60059 81.4316L4.0959 81.5846L6.70235 39.0612L4.20703 38.9082ZM5 35.0215L2.50003 35.0336C2.51554 38.2304 4.67227 40.9774 7.84762 43.2296L9.29395 41.1904L10.7403 39.1513C8.06087 37.2508 7.50381 35.8007 7.49997 35.0094L5 35.0215ZM9.29395 41.1904L7.84762 43.2296C11.07 45.5152 15.6358 47.5129 21.143 49.1651L21.8613 46.7705L22.5797 44.3759C17.333 42.8019 13.3417 40.9964 10.7403 39.1513L9.29395 41.1904ZM21.8613 46.7705L21.143 49.1651C32.1759 52.4749 47.3278 54.5 64 54.5V52V49.5C47.6741 49.5 33.0289 47.5106 22.5797 44.3759L21.8613 46.7705ZM64 52V54.5C80.6722 54.5 95.8241 52.4749 106.857 49.1651L106.139 46.7705L105.42 44.3759C94.9711 47.5106 80.3259 49.5 64 49.5V52ZM106.139 46.7705L106.857 49.1651C112.364 47.5129 116.93 45.5152 120.152 43.2296L118.706 41.1904L117.26 39.1513C114.658 40.9964 110.667 42.8019 105.42 44.3759L106.139 46.7705ZM118.706 41.1904L120.152 43.2296C122.449 41.6005 124.162 39.7587 124.98 37.6732L122.652 36.7607L120.325 35.8483C120 36.6772 119.137 37.8195 117.26 39.1513L118.706 41.1904ZM64 18V15.5C47.3278 15.5 32.1759 17.5251 21.143 20.8349L21.8613 23.2295L22.5797 25.6241C33.0289 22.4894 47.6741 20.5 64 20.5V18ZM21.8613 23.2295L21.143 20.8349C15.6358 22.4871 11.07 24.4848 7.84762 26.7704L9.29395 28.8096L10.7403 30.8487C13.3417 29.0036 17.333 27.1981 22.5797 25.6241L21.8613 23.2295ZM9.29395 28.8096L7.84762 26.7704C5.63218 28.3418 4.06126 30.0576 3.21081 31.9952L5.5 33L7.78919 34.0048C8.15863 33.1631 8.98369 32.0946 10.7403 30.8487L9.29395 28.8096ZM122.993 34.7656L125.49 34.6338C125.328 31.5733 123.219 28.9458 120.152 26.7704L118.706 28.8096L117.26 30.8487C119.839 32.6784 120.454 34.0975 120.497 34.8974L122.993 34.7656ZM118.706 28.8096L120.152 26.7704C116.93 24.4848 112.364 22.4871 106.857 20.8349L106.139 23.2295L105.42 25.6241C110.667 27.1981 114.658 29.0036 117.26 30.8487L118.706 28.8096ZM106.139 23.2295L106.857 20.8349C95.8241 17.5251 80.6722 15.5 64 15.5V18V20.5C80.3259 20.5 94.9711 22.4894 105.42 25.6241L106.139 23.2295ZM5.5 33L3.07313 32.3997L2.57313 34.4212L5 35.0215L7.42687 35.6218L7.92687 33.6003L5.5 33ZM122.993 34.7656L120.529 34.3447L120.188 36.3398L122.652 36.7607L125.117 37.1817L125.457 35.1866L122.993 34.7656ZM124 35L129 35V35H124ZM123.943 35.7793L118.978 35.1936L128.894 36.4824L123.943 35.7793ZM123.976 35.5L128.963 35.1399L119.011 34.9143L123.976 35.5ZM128 91.2178L129.593 95.9572L133.266 94.7227L132.987 90.8576L128 91.2178ZM127.529 91.376L125.936 86.6365L125.917 86.643L125.898 86.6497L127.529 91.376ZM118.356 96.1943L121.91 99.7121L121.918 99.7036L121.926 99.6951L118.356 96.1943ZM117.872 96.6836L121.413 100.214L121.419 100.208L121.425 100.201L117.872 96.6836ZM108.712 101.872L109.913 106.726L109.972 106.711L110.03 106.695L108.712 101.872ZM108.219 101.994L109.31 106.874L109.365 106.861L109.42 106.848L108.219 101.994ZM92.9316 101.872L91.6138 97.0489L91.563 97.0628L91.5125 97.0777L92.9316 101.872ZM92.4434 102.017L91.0242 97.2222L90.9744 97.237L90.9248 97.2528L92.4434 102.017ZM80.6572 109.098L81.9748 113.921L81.9751 113.921L80.6572 109.098ZM47.6465 109.163L46.4165 114.009L46.459 114.02L46.5016 114.03L47.6465 109.163ZM47.3887 109.098L46.0708 113.921L46.1146 113.933L46.1587 113.944L47.3887 109.098ZM30.6846 99.2637L32.0025 94.4405L32.0023 94.4405L30.6846 99.2637ZM13.96 99.3301L12.8547 104.206L12.9472 104.227L13.0406 104.245L13.96 99.3301ZM13.667 99.2637L12.3491 104.087L12.4548 104.116L12.5617 104.14L13.667 99.2637ZM7.01367 95.3467L9.55042 91.038L9.55024 91.0379L7.01367 95.3467ZM0 91.2178L-4.98727 90.8612L-5.20835 93.9537L-2.53657 95.5266L0 91.2178ZM4.08984 34.0078L-0.830131 33.1168L-0.878195 33.3822L-0.897429 33.6513L4.08984 34.0078ZM118.679 86.7441L115.863 82.6125L115.455 82.8901L115.11 83.242L118.679 86.7441ZM114.788 90.0879L117.468 94.3091L117.468 94.309L114.788 90.0879ZM108.844 92.5195L110.162 97.3428L110.162 97.3427L108.844 92.5195ZM100.754 92.5332L100.077 97.4872H100.077L100.754 92.5332ZM93.0635 92.5195L91.7457 87.6963L91.7456 87.6963L93.0635 92.5195ZM86.4404 96.2275L89.476 100.201L89.476 100.201L86.4404 96.2275ZM83.5947 98.3467L86.3915 102.491L86.3915 102.491L83.5947 98.3467ZM80.7891 99.7461L82.1066 104.569L82.107 104.569L80.7891 99.7461ZM78.4844 100.095L78.9817 105.07L78.9818 105.07L78.4844 100.095ZM74.7402 100.367L74.4691 95.3745H74.469L74.7402 100.367ZM64.667 100.657L64.7073 105.657H64.7073L64.667 100.657ZM54.2705 100.499L54.4995 95.5043H54.4995L54.2705 100.499ZM47.2568 99.7461L45.9389 104.569L45.939 104.569L47.2568 99.7461ZM39.2324 94.8809L36.2067 98.8615L39.2324 94.8809ZM30.5527 89.9121L31.8706 85.0889L31.8705 85.0889L30.5527 89.9121ZM20.8965 89.5625L20.3678 84.5905H20.3678L20.8965 89.5625ZM16.709 90.0215L17.1216 95.0044L17.1216 95.0044L16.709 90.0215ZM13.5352 89.9121L12.2173 94.7353L12.2178 94.7355L13.5352 89.9121ZM9.91504 88.1523L7.01621 92.2263L7.01624 92.2263L9.91504 88.1523ZM6.75977 85.9434L9.29652 81.6347L9.24264 81.6029L9.18798 81.5726L6.75977 85.9434ZM6.75098 85.9385L3.75098 89.9385L4.02421 90.1434L4.32276 90.3093L6.75098 85.9385ZM6.74316 85.9326L9.74316 81.9326L9.60048 81.8256L9.45053 81.729L6.74316 85.9326ZM1.53027 82.5752L4.23764 78.3716L-2.93899 73.7494L-3.46039 82.2698L1.53027 82.5752ZM1.03516 90.666L-3.95551 90.3606L-4.1427 93.4196L-1.50184 94.9746L1.03516 90.666ZM7.52148 94.4854L4.98448 98.7939L4.98461 98.794L7.52148 94.4854ZM10.7842 96.7646L7.8853 100.839L7.88538 100.839L10.7842 96.7646ZM13.9297 98.2988L12.6116 103.122L12.6118 103.122L13.9297 98.2988ZM16.585 98.3604L16.1724 93.3774V93.3774L16.585 98.3604ZM20.7373 97.9053L20.2086 92.9333H20.2086L20.7373 97.9053ZM30.9482 98.2988L32.2661 93.4756L32.266 93.4756L30.9482 98.2988ZM40.1406 103.521L43.1663 99.5399H43.1663L40.1406 103.521ZM47.6523 108.134L46.3345 112.957L46.3347 112.957L47.6523 108.134ZM54.3389 108.835L54.1099 113.83H54.1099L54.3389 108.835ZM64.6553 108.991L64.6149 103.991H64.6149L64.6553 108.991ZM74.6592 108.704L74.9304 113.697H74.9304L74.6592 108.704ZM78.3359 108.437L78.8333 113.412H78.8334L78.3359 108.437ZM80.3936 108.134L81.7104 112.957L81.7114 112.957L80.3936 108.134ZM82.7559 106.938L85.5527 111.082L85.5527 111.082L82.7559 106.938ZM85.5303 104.87L88.5658 108.843V108.843L85.5303 104.87ZM92.668 100.907L91.3501 96.084V96.084L92.668 100.907ZM100.957 100.881L101.634 95.9269H101.634L100.957 100.881ZM108.449 100.907L109.767 105.73L109.767 105.73L108.449 100.907ZM113.984 98.6553L116.664 102.876L116.664 102.876L113.984 98.6553ZM117.643 95.4941L121.212 98.995L121.213 98.9949L117.643 95.4941ZM122.662 92.2842L120.519 87.7667L120.519 87.7667L122.662 92.2842ZM126.953 90.5186L128.618 95.2332L132.182 93.9746L131.943 90.2027L126.953 90.5186ZM126.382 81.4941L131.372 81.1782L130.817 72.4203L123.566 77.3625L126.382 81.4941ZM64 18V23C80.2756 23 94.7984 24.7396 105.092 27.5907C110.273 29.0258 114.081 30.6613 116.478 32.2875C118.992 33.9932 119 34.9863 119 35H124H129C129 30.0432 125.65 26.426 122.092 24.0121C118.417 21.5189 113.437 19.5257 107.761 17.9535C96.3387 14.7898 80.8615 13 64 13V18ZM124 35L119 35C119 35.0061 119 35.0302 118.993 35.0762L123.943 35.7793L128.894 36.4824C128.961 36.0115 129 35.5162 129 35L124 35ZM123.943 35.7793L128.909 36.365L128.942 36.0857L123.976 35.5L119.011 34.9143L118.978 35.1936L123.943 35.7793ZM128 91.2178L126.407 86.4783L125.936 86.6365L127.529 91.376L129.122 96.1154L129.593 95.9572L128 91.2178ZM127.529 91.376L125.898 86.6497C124.497 87.1334 122.504 87.9094 120.552 88.8608C118.738 89.745 116.409 91.0393 114.787 92.6935L118.356 96.1943L121.926 99.6951C122.277 99.3379 123.281 98.6555 124.934 97.8496C126.449 97.111 128.056 96.4836 129.161 96.1023L127.529 91.376ZM118.356 96.1943L114.803 92.6766L114.319 93.1658L117.872 96.6836L121.425 100.201L121.91 99.7121L118.356 96.1943ZM117.872 96.6836L114.331 93.1535C113.237 94.2507 112.52 94.8713 111.666 95.3864C110.805 95.9056 109.576 96.4528 107.394 97.0489L108.712 101.872L110.03 106.695C112.78 105.944 114.94 105.09 116.832 103.949C118.731 102.803 120.128 101.503 121.413 100.214L117.872 96.6836ZM108.712 101.872L107.511 97.0185L107.017 97.1406L108.219 101.994L109.42 106.848L109.913 106.726L108.712 101.872ZM108.219 101.994L107.128 97.1146C105.619 97.4518 104.012 97.26 101.25 96.8839C98.8077 96.5513 95.2816 96.0467 91.6138 97.0489L92.9316 101.872L94.2495 106.695C95.6774 106.305 97.247 106.431 99.9005 106.792C102.235 107.11 105.722 107.676 109.31 106.874L108.219 101.994ZM92.9316 101.872L91.5125 97.0777L91.0242 97.2222L92.4434 102.017L93.8625 106.811L94.3508 106.666L92.9316 101.872ZM92.4434 102.017L90.9248 97.2528C87.504 98.3432 84.7861 100.399 82.91 101.838C81.8767 102.63 81.1541 103.198 80.4559 103.664C79.7661 104.124 79.4355 104.248 79.3393 104.274L80.6572 109.098L81.9751 113.921C83.5775 113.483 84.9457 112.689 86.0044 111.983C87.0546 111.283 88.1304 110.436 88.995 109.773C90.9149 108.301 92.3914 107.281 93.9619 106.78L92.4434 102.017ZM80.6572 109.098L79.3397 104.274C79.352 104.271 78.9761 104.351 77.9791 104.452C77.0878 104.542 75.9324 104.627 74.5704 104.703C71.8521 104.853 68.4479 104.956 64.954 104.989C61.4586 105.021 57.9245 104.983 54.9415 104.857C51.8173 104.725 49.7 104.51 48.7914 104.296L47.6465 109.163L46.5016 114.03C48.4513 114.489 51.4579 114.719 54.5197 114.848C57.7226 114.984 61.4365 115.022 65.0476 114.988C68.6602 114.954 72.2209 114.848 75.1226 114.687C77.7674 114.541 80.4926 114.326 81.9748 113.921L80.6572 109.098ZM47.6465 109.163L48.8764 104.317L48.6186 104.251L47.3887 109.098L46.1587 113.944L46.4165 114.009L47.6465 109.163ZM47.3887 109.098L48.7066 104.274C47.26 103.879 45.6093 102.653 42.5608 100.336C39.9409 98.3449 36.3434 95.6266 32.0025 94.4405L30.6846 99.2637L29.3667 104.087C31.5697 104.689 33.7171 106.175 36.5097 108.298C38.8737 110.094 42.3031 112.891 46.0708 113.921L47.3887 109.098ZM30.6846 99.2637L32.0023 94.4405C27.8891 93.3167 23.718 93.5777 20.6213 93.8955C18.7564 94.0868 17.8898 94.2228 16.5527 94.3474C16.0081 94.3982 15.5937 94.4231 15.2751 94.4264C14.9425 94.4299 14.8376 94.4075 14.8794 94.4153L13.96 99.3301L13.0406 104.245C14.5853 104.534 16.2517 104.419 17.4806 104.304C18.5854 104.201 20.5136 103.959 21.6419 103.843C24.5315 103.547 27.1407 103.479 29.3668 104.087L30.6846 99.2637ZM13.96 99.3301L15.0653 94.4538L14.7723 94.3874L13.667 99.2637L12.5617 104.14L12.8547 104.206L13.96 99.3301ZM13.667 99.2637L14.9849 94.4405C14.2284 94.2338 13.7565 93.9698 13.1037 93.5054C12.5381 93.1029 11.101 91.9509 9.55042 91.038L7.01367 95.3467L4.47692 99.6554C5.55647 100.291 5.95057 100.689 7.30637 101.653C8.57496 102.556 10.1147 103.476 12.3491 104.087L13.667 99.2637ZM7.01367 95.3467L9.55024 91.0379L2.53657 86.909L0 91.2178L-2.53657 95.5266L4.4771 99.6555L7.01367 95.3467ZM4.08984 34.0078L9.00982 34.8988C9.05567 34.6456 9.50258 33.4638 12.2713 31.7781C14.8896 30.1841 18.8072 28.6311 23.9448 27.286C34.1731 24.6081 48.2718 23 64 23V18V13C47.7009 13 32.7029 14.656 21.4121 17.6121C15.7902 19.084 10.8426 20.9405 7.07112 23.2366C3.45 25.4412 -0.0176257 28.6302 -0.830131 33.1168L4.08984 34.0078ZM118.679 86.7441L115.11 83.242C113.833 84.5436 113.05 85.2686 112.108 85.8668L114.788 90.0879L117.468 94.309C119.455 93.0476 120.919 91.5993 122.247 90.2463L118.679 86.7441ZM114.788 90.0879L112.108 85.8667C111.18 86.4561 109.88 87.0531 107.526 87.6963L108.844 92.5195L110.162 97.3427C113.129 96.532 115.437 95.5984 117.468 94.3091L114.788 90.0879ZM108.844 92.5195L107.526 87.6963C105.923 88.1343 104.207 87.9586 101.431 87.5792L100.754 92.5332L100.077 97.4872C102.527 97.8219 106.276 98.4043 110.162 97.3428L108.844 92.5195ZM100.754 92.5332L101.431 87.5792C98.9553 87.241 95.4052 86.6965 91.7457 87.6963L93.0635 92.5195L94.3813 97.3428C95.7532 96.9679 97.2592 97.1022 100.077 97.4872L100.754 92.5332ZM93.0635 92.5195L91.7456 87.6963C88.1866 88.6688 85.3818 90.744 83.4049 92.2545L86.4404 96.2275L89.476 100.201C91.443 98.6977 92.8864 97.7512 94.3814 97.3427L93.0635 92.5195ZM86.4404 96.2275L83.4049 92.2544C82.3214 93.0823 81.5576 93.6895 80.7979 94.2021L83.5947 98.3467L86.3915 102.491C87.4721 101.762 88.6089 100.863 89.476 100.201L86.4404 96.2275ZM83.5947 98.3467L80.7979 94.202C80.0512 94.706 79.6511 94.8737 79.4712 94.9229L80.7891 99.7461L82.107 104.569C83.8352 104.097 85.2951 103.231 86.3915 102.491L83.5947 98.3467ZM80.7891 99.7461L79.4716 94.9228C79.5078 94.9129 79.4086 94.9404 79.0993 94.9865C78.8161 95.0287 78.446 95.0736 77.987 95.1195L78.4844 100.095L78.9818 105.07C79.9921 104.969 81.1756 104.824 82.1066 104.569L80.7891 99.7461ZM78.4844 100.095L77.987 95.1195C77.0624 95.212 75.8691 95.2985 74.4691 95.3745L74.7402 100.367L75.0114 105.36C76.4955 105.279 77.8521 105.183 78.9817 105.07L78.4844 100.095ZM74.7402 100.367L74.469 95.3745C71.6752 95.5263 68.1853 95.6287 64.6266 95.6574L64.667 100.657L64.7073 105.657C68.388 105.627 72.0349 105.522 75.0114 105.36L74.7402 100.367ZM64.667 100.657L64.6267 95.6574C61.0653 95.6861 57.4837 95.6411 54.4995 95.5043L54.2705 100.499L54.0415 105.494C57.2592 105.641 61.0302 105.687 64.7073 105.657L64.667 100.657ZM54.2705 100.499L54.4995 95.5043C51.3446 95.3596 49.3231 95.1274 48.5746 94.9229L47.2568 99.7461L45.939 104.569C47.9211 105.111 51.0325 105.356 54.0415 105.494L54.2705 100.499ZM47.2568 99.7461L48.5747 94.9229C47.011 94.4956 45.2681 93.1882 42.2581 90.9003L39.2324 94.8809L36.2067 98.8615C38.5406 100.635 42.0563 103.508 45.9389 104.569L47.2568 99.7461ZM39.2324 94.8809L42.2581 90.9003C39.6307 88.9032 36.105 86.2459 31.8706 85.0889L30.5527 89.9121L29.2349 94.7353C31.3303 95.3079 33.4047 96.7316 36.2067 98.8615L39.2324 94.8809ZM30.5527 89.9121L31.8705 85.0889C27.7284 83.9572 23.4974 84.2578 20.3678 84.5905L20.8965 89.5625L21.4251 94.5345C24.4059 94.2175 27.0269 94.132 29.2349 94.7353L30.5527 89.9121ZM20.8965 89.5625L20.3678 84.5905C18.6242 84.7759 17.476 84.9408 16.2963 85.0385L16.709 90.0215L17.1216 95.0044C18.4006 94.8985 20.1533 94.6697 21.4252 94.5345L20.8965 89.5625ZM16.709 90.0215L16.2964 85.0385C15.7652 85.0825 15.374 85.0982 15.0838 85.0921C14.7774 85.0856 14.7349 85.0567 14.8525 85.0888L13.5352 89.9121L12.2178 94.7355C13.9914 95.2198 15.8892 95.1065 17.1216 95.0044L16.709 90.0215ZM13.5352 89.9121L14.8531 85.0889C14.0236 84.8623 13.4983 84.5654 12.8138 84.0784L9.91504 88.1523L7.01624 92.2263C8.31456 93.1501 9.90801 94.1043 12.2173 94.7353L13.5352 89.9121ZM9.91504 88.1523L12.8139 84.0784C12.2141 83.6517 10.8229 82.5333 9.29652 81.6347L6.75977 85.9434L4.22301 90.2521C5.27959 90.8741 5.61584 91.2298 7.01621 92.2263L9.91504 88.1523ZM6.75977 85.9434L9.18798 81.5726L9.17919 81.5677L6.75098 85.9385L4.32276 90.3093L4.33155 90.3141L6.75977 85.9434ZM6.75098 85.9385L9.75098 81.9385L9.74316 81.9326L6.74316 85.9326L3.74316 89.9326L3.75098 89.9385L6.75098 85.9385ZM6.74316 85.9326L9.45053 81.729L4.23764 78.3716L1.53027 82.5752L-1.1771 86.7788L4.0358 90.1362L6.74316 85.9326ZM1.53027 82.5752L-3.46039 82.2698L-3.95551 90.3606L1.03516 90.666L6.02582 90.9714L6.52094 82.8806L1.53027 82.5752ZM1.03516 90.666L-1.50184 94.9746L4.98448 98.7939L7.52148 94.4854L10.0585 90.1768L3.57216 86.3575L1.03516 90.666ZM7.52148 94.4854L4.98461 98.794C6.10903 99.456 6.62158 99.9393 7.8853 100.839L10.7842 96.7646L13.6831 92.6908C13.184 92.3356 11.6576 91.1183 10.0584 90.1767L7.52148 94.4854ZM10.7842 96.7646L7.88538 100.839C9.09284 101.698 10.5258 102.552 12.6116 103.122L13.9297 98.2988L15.2478 93.4757C14.8996 93.3805 14.657 93.2795 14.4584 93.1783C14.2489 93.0716 14.0184 92.9294 13.683 92.6907L10.7842 96.7646ZM13.9297 98.2988L12.6118 103.122C14.1093 103.531 15.7756 103.444 16.9976 103.343L16.585 98.3604L16.1724 93.3774C15.6544 93.4203 15.3162 93.4302 15.1096 93.4261C15.0111 93.4241 14.9744 93.4194 14.9861 93.4207C14.9947 93.4217 15.0912 93.4329 15.2476 93.4756L13.9297 98.2988ZM16.585 98.3604L16.9976 103.343C18.261 103.239 19.9258 103.02 21.266 102.877L20.7373 97.9053L20.2086 92.9333C18.3929 93.1264 17.3375 93.2809 16.1724 93.3774L16.585 98.3604ZM20.7373 97.9053L21.266 102.877C24.2681 102.558 27.1318 102.439 29.6304 103.122L30.9482 98.2988L32.266 93.4756C27.8342 92.2647 23.3615 92.5981 20.2086 92.9333L20.7373 97.9053ZM30.9482 98.2988L29.6304 103.122C32.0483 103.783 34.3426 105.394 37.1149 107.501L40.1406 103.521L43.1663 99.5399C40.561 97.5595 36.8196 94.7198 32.2661 93.4756L30.9482 98.2988ZM40.1406 103.521L37.1149 107.501C38.4354 108.505 39.889 109.629 41.3064 110.557C42.7334 111.492 44.4216 112.434 46.3345 112.957L47.6523 108.134L48.9702 103.311C48.5081 103.184 47.8277 102.875 46.7863 102.192C45.7352 101.504 44.6204 100.645 43.1663 99.5399L40.1406 103.521ZM47.6523 108.134L46.3347 112.957C48.1327 113.448 51.0823 113.691 54.1099 113.83L54.3389 108.835L54.5679 103.84C51.388 103.694 49.5324 103.464 48.9699 103.311L47.6523 108.134ZM54.3389 108.835L54.1099 113.83C57.293 113.976 61.0362 114.021 64.6956 113.991L64.6553 108.991L64.6149 103.991C61.0704 104.02 57.5169 103.975 54.5679 103.84L54.3389 108.835ZM64.6553 108.991L64.6956 113.991C68.3572 113.962 71.9807 113.857 74.9304 113.697L74.6592 108.704L74.388 103.711C71.6223 103.862 68.1561 103.963 64.6149 103.991L64.6553 108.991ZM74.6592 108.704L74.9304 113.697C76.4026 113.617 77.7348 113.522 78.8333 113.412L78.3359 108.437L77.8385 103.461C76.9439 103.551 75.7743 103.636 74.388 103.711L74.6592 108.704ZM78.3359 108.437L78.8334 113.412C79.8409 113.311 80.9125 113.175 81.7104 112.957L80.3936 108.134L79.0767 103.31C79.1533 103.289 79.1784 103.286 79.1258 103.297C79.0806 103.305 79.001 103.319 78.8806 103.337C78.6382 103.373 78.2941 103.416 77.8385 103.461L78.3359 108.437ZM80.3936 108.134L81.7114 112.957C83.2092 112.548 84.5113 111.785 85.5527 111.082L82.7559 106.938L79.9591 102.793C79.635 103.012 79.4005 103.149 79.2358 103.234C79.0711 103.318 79.0248 103.324 79.0757 103.311L80.3936 108.134ZM82.7559 106.938L85.5527 111.082C86.5851 110.385 87.6661 109.531 88.5658 108.843L85.5303 104.87L82.4947 100.897C81.3782 101.75 80.6704 102.313 79.959 102.793L82.7559 106.938ZM85.5303 104.87L88.5658 108.843C90.5319 107.341 92.1801 106.224 93.9859 105.73L92.668 100.907L91.3501 96.084C87.4831 97.1406 84.4762 99.3831 82.4947 100.897L85.5303 104.87ZM92.668 100.907L93.9859 105.73C95.7038 105.261 97.5219 105.458 100.28 105.835L100.957 100.881L101.634 95.9269C99.1989 95.5942 95.3493 94.9913 91.3501 96.084L92.668 100.907ZM100.957 100.881L100.28 105.835C102.77 106.175 106.221 106.699 109.767 105.73L108.449 100.907L107.131 96.084C105.874 96.4275 104.471 96.3145 101.634 95.9269L100.957 100.881ZM108.449 100.907L109.767 105.73C112.644 104.944 114.8 104.06 116.664 102.876L113.984 98.6553L111.304 94.4342C110.54 94.9193 109.392 95.4664 107.131 96.084L108.449 100.907ZM113.984 98.6553L116.664 102.876C118.509 101.705 119.88 100.353 121.212 98.995L117.643 95.4941L114.073 91.9933C112.783 93.3085 112.099 93.9299 111.304 94.4342L113.984 98.6553ZM117.643 95.4941L121.213 98.9949C121.735 98.4626 123.002 97.6572 124.805 96.8017L122.662 92.2842L120.519 87.7667C118.587 88.6835 115.92 90.1092 114.073 91.9934L117.643 95.4941ZM122.662 92.2842L124.805 96.8017C126.168 96.1551 127.57 95.6034 128.618 95.2332L126.953 90.5186L125.288 85.8039C123.981 86.2655 122.252 86.9448 120.519 87.7667L122.662 92.2842ZM126.953 90.5186L131.943 90.2027L131.372 81.1782L126.382 81.4941L121.392 81.81L121.963 90.8344L126.953 90.5186ZM126.382 81.4941L123.566 77.3625L115.863 82.6125L118.679 86.7441L121.495 90.8758L129.198 85.6258L126.382 81.4941ZM123.976 35.5L118.989 35.8601L123.013 91.5779L128 91.2178L132.987 90.8576L128.963 35.1399L123.976 35.5ZM0 91.2178L4.98727 91.5743L9.07712 34.3643L4.08984 34.0078L-0.897429 33.6513L-4.98727 90.8612L0 91.2178Z" fill="black" mask="url(#path-1-inside-1_2_419)"/>
</svg>
