<?xml version="1.0" encoding="UTF-8"?>
<svg height="128px" viewBox="0 0 128 128" width="128px" xmlns="http://www.w3.org/2000/svg" xmlns:xlink="http://www.w3.org/1999/xlink">
    <linearGradient id="a" gradientUnits="userSpaceOnUse" x1="2.83186" x2="124.601997" y1="68.053802" y2="69.730301">
        <stop offset="0" stop-color="#d32f2f"/>
        <stop offset="1" stop-color="#8c1d1d"/>
    </linearGradient>
    <linearGradient id="b" gradientUnits="userSpaceOnUse" x1="4" x2="124" y1="39.020199" y2="39.020199">
        <stop offset="0" stop-color="#ef5350"/>
        <stop offset="1" stop-color="#c34644"/>
    </linearGradient>
    <linearGradient id="c" gradientTransform="matrix(0.998664 0.0516811 -0.239186 0.970974 66.6054 25.5418)" gradientUnits="userSpaceOnUse" x1="4.3881" x2="38.289001" y1="4.58353" y2="24.370701">
        <stop offset="0" stop-color="#33d17a"/>
        <stop offset="1" stop-color="#32b46c"/>
    </linearGradient>
    <path d="m 3.507812 38.019531 l 120.984376 1.789063 l 2.816406 44.472656 l 0.691406 10.957031 c -2.339844 0.765625 -7.539062 2.832031 -9.644531 4.976563 c -2.628907 2.679687 -4.382813 4.238281 -9.644531 5.675781 c -5.257813 1.4375 -10.519532 -1.4375 -15.78125 0 c -5.257813 1.4375 -8.765626 6.269531 -12.273438 7.226563 c -3.503906 0.957031 -28.054688 1.425781 -33.269531 0 c -5.210938 -1.425782 -10.15625 -8.046876 -16.703125 -9.832032 c -6.542969 -1.789062 -14.027344 0.816406 -17.015625 0 c -2.992188 -0.816406 -4.023438 -2.371094 -6.652344 -3.917968 l -7.015625 -4.128907 l 0.601562 -9.835937 z m 0 0" fill="url(#a)"/>
    <path d="m 124 39.019531 c 0 9.941407 -26.863281 18 -60 18 s -60 -8.058593 -60 -18 c 0 -9.941406 26.863281 -18 60 -18 s 60 8.058594 60 18 z m 0 0" fill="url(#b)"/>
    <path d="m 7.015625 99.238281 l -7.015625 -4.164062 l 0.601562 -9.921875 l 6.414063 4.164062 c 2.628906 1.5625 3.660156 3.128906 6.652344 3.953125 c 2.988281 0.824219 10.472656 -1.804687 17.015625 0 c 6.546875 1.804688 11.492187 8.484375 16.703125 9.921875 c 5.214843 1.4375 29.765625 0.964844 33.269531 0 c 3.507812 -0.96875 7.015625 -5.839844 12.273438 -7.292968 c 5.261718 -1.449219 10.523437 1.453124 15.78125 0 c 5.261718 -1.449219 7.015624 -3.019532 9.644531 -5.726563 l 8.953125 -6.152344 l 0.691406 11.054688 c -2.339844 0.769531 -7.539062 2.855469 -9.644531 5.019531 c -2.628907 2.707031 -4.382813 4.277344 -9.644531 5.726562 c -5.257813 1.449219 -10.519532 -1.449218 -15.78125 0 c -5.257813 1.449219 -8.765626 6.324219 -12.273438 7.289063 c -3.503906 0.96875 -28.054688 1.4375 -33.269531 0 c -5.210938 -1.4375 -10.15625 -8.117187 -16.703125 -9.917969 c -6.542969 -1.804687 -14.027344 0.824219 -17.015625 0 c -2.992188 -0.828125 -4.023438 -2.390625 -6.652344 -3.953125 z m 0 0" fill="#c5cae9"/>
    <path d="m 121 41.019531 c 0 5.523438 -10.519531 10 -23.5 10 s -23.5 -4.476562 -23.5 -10 c 0 -5.523437 10.519531 -10 23.5 -10 s 23.5 4.476563 23.5 10 z m 0 0" fill-opacity="0.3"/>
    <path d="m 122.335938 37.769531 c -1.257813 5.09375 -15.257813 8.550781 -31.273438 7.722657 c -16.019531 -0.828126 -27.984375 -5.632813 -26.730469 -10.726563 c 1.257813 -5.09375 15.257813 -8.550781 31.273438 -7.722656 c 16.019531 0.828125 27.984375 5.628906 26.730469 10.726562 z m 0 0" fill="#26a269"/>
    <path d="m 115.042969 39.117188 c -1.253907 5.09375 -12.039063 8.71875 -24.085938 8.09375 c -12.046875 -0.621094 -20.796875 -5.257813 -19.542969 -10.351563 c 1.253907 -5.09375 12.039063 -8.71875 24.085938 -8.097656 c 12.050781 0.625 20.800781 5.261719 19.542969 10.355469 z m 0 0" fill="#26a269"/>
    <path d="m 122.441406 37.410156 c -1.207031 4.894532 -15.171875 8.191406 -31.191406 7.363282 c -16.023438 -0.832032 -28.035156 -5.472657 -26.828125 -10.367188 s 15.171875 -8.191406 31.195313 -7.363281 c 16.019531 0.828125 28.03125 5.46875 26.824218 10.367187 z m 0 0" fill="url(#c)"/>
    <path d="m 112.761719 36.878906 c -0.785157 3.1875 -10.066407 5.324219 -20.730469 4.773438 c -10.664062 -0.550782 -18.671875 -3.582032 -17.886719 -6.769532 c 0.785157 -3.1875 10.066407 -5.324218 20.730469 -4.773437 s 18.671875 3.582031 17.886719 6.769531 z m 0 0" fill="#2ec27e"/>
    <path d="m 107.015625 38.554688 c -0.507813 2.058593 -7.195313 3.402343 -14.945313 3 c -7.746093 -0.402344 -13.613281 -2.394532 -13.109374 -4.449219 c 0.507812 -2.058594 7.199218 -3.402344 14.945312 -3 c 7.746094 0.402343 13.617188 2.394531 13.109375 4.449219 z m 0 0" fill="#26a269"/>
</svg>